<svg width="100%" height="100%" viewbox="0 0 512 115" fill="none" xmlns="http://www.w3.org/2000/svg">
  <path
    d="M159.865 17.8497C157.983 10.8201 152.459 5.29593 145.429 3.41421C132.701 0.000245163 81.6391 0.000244141 81.6391 0.000244141C81.6391 0.000244141 30.5776 0.000245163 17.8491 3.41421C10.8196 5.29593 5.29544 10.8201 3.41373 17.8497C-0.000243119 30.5781 -0.000244141 57.1506 -0.000244141 57.1506C-0.000244141 57.1506 -0.000243119 83.7233 3.41373 96.4518C5.29544 103.481 10.8196 109.005 17.8491 110.887C30.5776 114.301 81.6391 114.301 81.6391 114.301C81.6391 114.301 132.701 114.301 145.429 110.887C152.459 109.005 157.983 103.481 159.865 96.4518C163.279 83.7233 163.279 57.1506 163.279 57.1506C163.279 57.1506 163.265 30.5781 159.865 17.8497Z"
    fill="#FF0000"></path>
  <path d="M65.2958 81.6419L107.715 57.1529L65.2958 32.6636V81.6419Z" fill="white"></path>
  <path
    d="M197.754 74.3163L179.421 8.10681H195.415L201.84 38.1201C203.48 45.5126 204.676 51.8163 205.455 57.0314H205.926C206.464 53.2948 207.673 47.0314 209.542 38.2277L216.195 8.10681H232.189L213.627 74.3163V106.077H197.741V74.3163H197.754Z"
    fill="currentColor"></path>
  <path
    d="M237.001 103.978C233.775 101.801 231.477 98.4132 230.106 93.8166C228.748 89.22 228.063 83.118 228.063 75.4833V65.0934C228.063 57.3918 228.843 51.1958 230.402 46.5319C231.961 41.8679 234.394 38.4539 237.7 36.3169C241.006 34.1798 245.348 33.1045 250.724 33.1045C256.02 33.1045 260.254 34.1932 263.452 36.3706C266.638 38.548 268.976 41.962 270.455 46.5856C271.933 51.2227 272.673 57.3918 272.673 65.0934V75.4833C272.673 83.118 271.947 89.2469 270.509 93.8703C269.071 98.5075 266.732 101.895 263.506 104.032C260.28 106.169 255.899 107.244 250.374 107.244C244.675 107.257 240.227 106.155 237.001 103.978ZM255.092 92.7685C255.979 90.4299 256.436 86.6259 256.436 81.3304V59.032C256.436 53.8975 255.993 50.134 255.092 47.7684C254.192 45.3894 252.619 44.2066 250.361 44.2066C248.184 44.2066 246.638 45.3894 245.751 47.7684C244.85 50.1475 244.407 53.8975 244.407 59.032V81.3304C244.407 86.6259 244.837 90.443 245.697 92.7685C246.557 95.107 248.103 96.2763 250.361 96.2763C252.619 96.2763 254.192 95.107 255.092 92.7685Z"
    fill="currentColor"></path>
  <path
    d="M324.702 106.091H312.095L310.697 97.3274H310.347C306.92 103.94 301.785 107.246 294.931 107.246C290.186 107.246 286.678 105.687 284.42 102.583C282.162 99.4642 281.033 94.599 281.033 87.9862V34.5049H297.149V87.0449C297.149 90.2442 297.498 92.5153 298.197 93.8732C298.896 95.2305 300.065 95.9158 301.705 95.9158C303.102 95.9158 304.447 95.486 305.737 94.6259C307.028 93.7652 307.968 92.6765 308.6 91.3597V34.4915H324.702V106.091Z"
    fill="currentColor"></path>
  <path d="M368.48 21.0749H352.485V106.088H336.719V21.0749H320.724V8.11792H368.48V21.0749Z"
    fill="currentColor"></path>
  <path
    d="M407.349 106.091H394.742L393.344 97.3274H392.995C389.568 103.94 384.433 107.246 377.578 107.246C372.833 107.246 369.325 105.687 367.067 102.583C364.809 99.4642 363.68 94.599 363.68 87.9862V34.5049H379.796V87.0449C379.796 90.2442 380.145 92.5153 380.844 93.8732C381.543 95.2305 382.712 95.9158 384.353 95.9158C385.75 95.9158 387.094 95.486 388.385 94.6259C389.675 93.7652 390.616 92.6765 391.247 91.3597V34.4915H407.349V106.091Z"
    fill="currentColor"></path>
  <path
    d="M460.683 45.9417C459.702 41.4256 458.129 38.1595 455.952 36.1299C453.775 34.1004 450.777 33.0923 446.96 33.0923C444.003 33.0923 441.234 33.9256 438.667 35.6057C436.1 37.2858 434.111 39.4767 432.713 42.2052H432.592V4.49023H417.068V106.076H430.374L432.014 99.3019H432.364C433.613 101.721 435.482 103.616 437.968 105.028C440.455 106.426 443.224 107.125 446.261 107.125C451.705 107.125 455.724 104.611 458.291 99.5974C460.858 94.5704 462.148 86.7345 462.148 76.0628V64.7322C462.148 56.7347 461.651 50.4579 460.683 45.9417ZM445.912 75.1484C445.912 80.3634 445.697 84.4497 445.266 87.4066C444.837 90.3636 444.124 92.4741 443.103 93.7103C442.095 94.9602 440.724 95.5786 439.016 95.5786C437.686 95.5786 436.463 95.2694 435.334 94.6379C434.205 94.0195 433.291 93.0788 432.592 91.8421V51.2105C433.129 49.2616 434.071 47.6756 435.401 46.4256C436.718 45.1756 438.17 44.5573 439.715 44.5573C441.356 44.5573 442.619 45.2025 443.506 46.4794C444.406 47.7697 445.025 49.9202 445.374 52.9578C445.724 55.9954 445.899 60.3099 445.899 65.9146V75.1484H445.912Z"
    fill="currentColor"></path>
  <path
    d="M485.01 79.2746C485.01 83.8712 485.145 87.3123 485.414 89.6108C485.683 91.9089 486.247 93.5759 487.107 94.6378C487.967 95.6859 489.285 96.21 491.072 96.21C493.478 96.21 495.145 95.2693 496.032 93.4011C496.933 91.5328 497.417 88.4147 497.497 84.0598L511.395 84.8794C511.476 85.4977 511.516 86.3578 511.516 87.4466C511.516 94.0594 509.701 99.0058 506.086 102.272C502.47 105.538 497.349 107.178 490.736 107.178C482.793 107.178 477.228 104.691 474.043 99.7047C470.844 94.7184 469.258 87.0168 469.258 76.5863V64.0863C469.258 53.3473 470.911 45.4979 474.218 40.5517C477.524 35.6055 483.183 33.1323 491.207 33.1323C496.731 33.1323 500.978 34.1404 503.935 36.17C506.892 38.1995 508.975 41.3447 510.185 45.6323C511.395 49.9199 512 55.8339 512 63.3874V75.6456H485.01V79.2746ZM487.054 45.5382C486.233 46.5463 485.696 48.1995 485.414 50.4979C485.145 52.7963 485.01 56.2774 485.01 60.9551V66.0895H496.798V60.9551C496.798 56.3581 496.637 52.8769 496.328 50.4979C496.019 48.1189 495.454 46.4522 494.634 45.471C493.814 44.5033 492.551 44.006 490.844 44.006C489.124 44.0194 487.86 44.5302 487.054 45.5382Z"
    fill="currentColor"></path>
</svg>