<svg width="100" height="100" viewBox="0 0 100 100" fill="none" xmlns="http://www.w3.org/2000/svg">
<g clip-path="url(#clip0_3_8877)">
<rect width="100" height="100" rx="50" fill="white"/>
<path d="M0 0H100V100H0V0Z" fill="#0C0C0C"/>
<path fill-rule="evenodd" clip-rule="evenodd" d="M60.0373 43.5545C63.104 45.7345 66.7764 46.8993 70.5389 46.8851V39.4284C69.7992 39.4305 69.0616 39.3513 68.3392 39.1923V45.1328C64.5682 45.1395 60.8904 43.9614 57.8252 41.7649V57.1009C57.8159 59.6174 57.1258 62.0845 55.828 64.2405C54.5302 66.3966 52.6732 68.1613 50.4537 69.3475C48.2343 70.5336 45.7352 71.097 43.2215 70.978C40.7078 70.859 38.2732 70.0619 36.1758 68.6712C38.1158 70.6342 40.5947 71.9772 43.2986 72.5304C46.0024 73.0835 48.8096 72.8219 51.3647 71.7786C53.9197 70.7353 56.1077 68.9572 57.6516 66.6696C59.1955 64.3819 60.0258 61.6876 60.0373 58.9278V43.5545ZM62.759 35.9486C61.1996 34.2583 60.2427 32.0998 60.0373 29.8092V28.8398H57.9495C58.2076 30.2959 58.7692 31.6813 59.5978 32.906C60.4264 34.1308 61.5035 35.1674 62.759 35.9486ZM41.0102 62.768C40.2866 61.8217 39.8431 60.6913 39.7303 59.5053C39.6175 58.3194 39.8398 57.1256 40.3721 56.0598C40.9043 54.994 41.7251 54.0991 42.7409 53.4768C43.7567 52.8545 44.9269 52.5299 46.1181 52.5398C46.7758 52.5396 47.4296 52.6402 48.0569 52.8381V45.1328C47.3236 45.0357 46.5842 44.9942 45.8447 45.0085V50.9988C44.3174 50.516 42.6644 50.6258 41.2145 51.3063C39.7645 51.9868 38.6237 53.1881 38.0192 54.6714C37.4146 56.1546 37.3905 57.8111 37.9516 59.3113C38.5127 60.8115 39.618 62.0456 41.0475 62.768H41.0102Z" fill="#EE1D52"/>
<path fill-rule="evenodd" clip-rule="evenodd" d="M57.8241 41.7151C60.8893 43.9117 64.5671 45.0898 68.3381 45.0831V39.1426C66.1896 38.6883 64.2378 37.5711 62.758 35.9486C61.5024 35.1674 60.4254 34.1308 59.5967 32.906C58.7681 31.6813 58.2065 30.2959 57.9484 28.8398H52.4553V58.9278C52.4501 60.2596 52.0281 61.5563 51.2484 62.636C50.4686 63.7157 49.3703 64.5241 48.1077 64.9477C46.8451 65.3713 45.4815 65.3889 44.2084 64.998C42.9352 64.607 41.8165 63.8272 41.0092 62.768C39.7297 62.1225 38.7051 61.0647 38.1006 59.7654C37.4961 58.4661 37.347 57.001 37.6773 55.6065C38.0076 54.212 38.7981 52.9695 39.9212 52.0794C41.0443 51.1893 42.4345 50.7036 43.8676 50.7005C44.5251 50.7026 45.1786 50.8032 45.8063 50.9988V45.0085C43.0941 45.0736 40.4598 45.9293 38.227 47.4704C35.9941 49.0115 34.2598 51.171 33.237 53.6839C32.2142 56.1968 31.9473 58.9536 32.4692 61.616C32.991 64.2784 34.2789 66.7305 36.1747 68.6712C38.2725 70.0718 40.711 70.8772 43.2304 71.0014C45.7497 71.1257 48.2556 70.5643 50.4811 69.3769C52.7066 68.1896 54.5683 66.4208 55.868 64.259C57.1676 62.0972 57.8566 59.6233 57.8614 57.1009L57.8241 41.7151Z" fill="white"/>
<path fill-rule="evenodd" clip-rule="evenodd" d="M68.3381 39.1426L68.3388 37.5389C66.3657 37.5472 64.4311 36.9961 62.759 35.9486C64.2351 37.5758 66.1874 38.6939 68.3381 39.1426ZM57.9495 28.8398C57.9495 28.554 57.8621 28.2552 57.8248 27.9694V27H50.2438V57.1004C50.2372 58.7858 49.5622 60.3998 48.3669 61.5881C47.1716 62.7764 45.5537 63.4419 43.8683 63.4386C42.8759 63.4436 41.8967 63.2141 41.0102 62.768C41.8175 63.8272 42.9352 64.607 44.2084 64.998C45.4815 65.3889 46.8451 65.3713 48.1077 64.9477C49.3703 64.5241 50.4686 63.7157 51.2484 62.636C52.0281 61.5563 52.4501 60.2596 52.4553 58.9278V28.8398H57.9495ZM45.807 44.9956V43.293C42.6875 42.8692 39.5164 43.5145 36.8105 45.1237C34.1047 46.7329 32.0236 49.2111 30.9065 52.1544C29.7895 55.0978 29.7022 58.3327 30.659 61.332C31.6158 64.3312 33.5606 66.9185 36.1758 68.6712C34.2943 66.726 33.0198 64.2744 32.5086 61.6168C31.9974 58.9593 32.2712 56.2104 33.2967 53.7059C34.3222 51.2015 36.055 49.0499 38.2832 47.5141C40.5115 45.9783 43.1389 45.1248 45.8443 45.0577L45.807 44.9956Z" fill="#69C9D0"/>
</g>
<defs>
<clipPath id="clip0_3_8877">
<rect width="100" height="100" rx="50" fill="white"/>
</clipPath>
</defs>
</svg>
